<?xml version="1.0" encoding="UTF-8" standalone="no"?><!DOCTYPE svg PUBLIC "-//W3C//DTD SVG 1.1//EN" "http://www.w3.org/Graphics/SVG/1.1/DTD/svg11.dtd"><svg width="100%" height="100%" viewBox="0 0 78 78" version="1.1" xmlns="http://www.w3.org/2000/svg" xmlns:xlink="http://www.w3.org/1999/xlink" xml:space="preserve" xmlns:serif="http://www.serif.com/" style="fill-rule:evenodd;clip-rule:evenodd;stroke-linecap:round;stroke-linejoin:round;stroke-miterlimit:1.5;"><circle cx="39" cy="39" r="37.5" style="fill:#1a1a1a;stroke:#fff;stroke-width:3px;"/><g><path d="M30.887,25.435l4.891,6.787" style="fill:none;stroke:#0a8825;stroke-width:1.5px;"/><path d="M42.653,41.79l2.321,3.497" style="fill:none;stroke:#0a8825;stroke-width:1.5px;"/><path d="M62.96,55.913l-11.589,-9.303" style="fill:none;stroke:#0a8825;stroke-width:1.5px;"/><path d="M31.33,64.153l4.519,-14.07" style="fill:none;stroke:#0a8825;stroke-width:1.5px;"/><path d="M18.129,50.692l10.065,-6.421" style="fill:none;stroke:#0a8825;stroke-width:1.5px;"/><path d="M16.276,19.192l11.705,9.344" style="fill:none;stroke:#0a8825;stroke-width:1.5px;"/><path d="M45.417,16.847l-2.764,9.634" style="fill:none;stroke:#0a8825;stroke-width:1.5px;"/><path d="M64.732,21.537l-13.361,8.275" style="fill:none;stroke:#0a8825;stroke-width:1.5px;"/><path d="M16.276,19.192l14.611,6.243" style="fill:none;stroke:#0a8825;stroke-width:1.5px;"/><path d="M35.778,32.222l0.071,17.861" style="fill:none;stroke:#0a8825;stroke-width:1.5px;"/><path d="M42.653,26.481l-0,15.309" style="fill:none;stroke:#0a8825;stroke-width:1.5px;"/><path d="M51.371,29.812l0,16.798" style="fill:none;stroke:#0a8825;stroke-width:1.5px;"/><path d="M28.194,44.271l-0.213,-15.735" style="fill:none;stroke:#0a8825;stroke-width:1.5px;"/><path d="M27.981,28.536l14.672,-2.055l8.718,3.331l-15.593,2.41l-7.797,-3.686Z" style="fill:none;stroke:#0a8825;stroke-width:1.5px;"/><path d="M28.194,44.271l14.459,-2.481l8.718,4.82l-15.522,3.473l-7.655,-5.812Z" style="fill:none;stroke:#0a8825;stroke-width:1.5px;"/><path d="M64.732,21.537l-33.845,3.898l0.443,38.718l31.63,-8.24l1.772,-34.376Z" style="fill:none;stroke:#0a8825;stroke-width:1.5px;"/><path d="M45.417,16.847l-29.149,2.215l1.861,31.63l26.845,-5.405l0.443,-28.44Z" style="fill:none;stroke:#0a8825;stroke-width:1.5px;"/><path d="M45.417,16.847c0.62,0.171 19.315,4.69 19.315,4.69" style="fill:none;stroke:#0a8825;stroke-width:1.5px;"/><path d="M18.129,50.692l13.201,13.461" style="fill:none;stroke:#0a8825;stroke-width:1.5px;"/><path d="M44.974,45.287l17.986,10.626" style="fill:none;stroke:#0a8825;stroke-width:1.5px;"/></g></svg>