<?xml version="1.0" encoding="UTF-8" standalone="no"?><!DOCTYPE svg PUBLIC "-//W3C//DTD SVG 1.1//EN" "http://www.w3.org/Graphics/SVG/1.1/DTD/svg11.dtd"><svg width="100%" height="100%" viewBox="0 0 144 127" version="1.1" xmlns="http://www.w3.org/2000/svg" xmlns:xlink="http://www.w3.org/1999/xlink" xml:space="preserve" xmlns:serif="http://www.serif.com/" style="fill-rule:evenodd;clip-rule:evenodd;stroke-linejoin:round;stroke-miterlimit:2;"><path d="M71.127,31.675l1.562,-0c1.242,-0 2.25,-1.009 2.25,-2.25c0,-1.242 -1.008,-2.25 -2.25,-2.25l-1.562,-0c-1.242,-0 -2.25,1.008 -2.25,2.25c-0,1.241 1.008,2.25 2.25,2.25Z" style="fill:#0a8825;"/><path d="M81.826,31.675l36.555,-0c1.242,-0 2.25,-1.009 2.25,-2.25c0,-1.242 -1.008,-2.25 -2.25,-2.25l-36.555,-0c-1.242,-0 -2.25,1.008 -2.25,2.25c-0,1.241 1.008,2.25 2.25,2.25Z" style="fill:#0a8825;"/><path d="M74.146,47.472l44.235,0c1.242,0 2.25,-1.008 2.25,-2.25c0,-1.241 -1.008,-2.25 -2.25,-2.25l-44.235,0c-1.242,0 -2.25,1.009 -2.25,2.25c-0,1.242 1.008,2.25 2.25,2.25Z" style="fill:#0a8825;"/><path d="M50.822,37.902c1.347,-18.744 20.614,-33.402 43.926,-33.402c24.174,-0 44.002,15.765 44.002,35.49c0,7.92 -3.298,15.598 -9.311,21.815c-0.625,0.647 -0.805,1.605 -0.457,2.435l7.596,18.097c-0,-0 -20.751,-10.359 -20.751,-10.359c-0.57,-0.285 -1.235,-0.315 -1.828,-0.081c-5.35,2.103 -11.156,3.303 -17.073,3.539c-0.413,-0.509 -1.043,-0.834 -1.748,-0.834c-1.242,-0 -2.25,1.008 -2.25,2.25c-0,0.272 -0.004,0.543 -0.012,0.812c-0.018,0.61 0.214,1.202 0.641,1.639c0.427,0.436 1.014,0.68 1.624,0.676c6.741,-0.05 13.391,-1.256 19.521,-3.534c-0,0 25.293,12.628 25.293,12.628c0.842,0.42 1.856,0.272 2.543,-0.371c0.687,-0.643 0.901,-1.646 0.537,-2.513l-9.38,-22.349c6.214,-6.901 9.555,-15.262 9.555,-23.85c0,-21.934 -21.621,-39.99 -48.502,-39.99c-26.496,-0 -47.886,17.546 -48.489,39.05c-0.017,0.611 0.215,1.203 0.643,1.639c0.428,0.436 1.015,0.68 1.626,0.674c0.13,-0.001 0.264,-0.001 0.397,-0.001c1.242,-0 2.25,-1.009 2.25,-2.25c0,-0.446 -0.129,-0.861 -0.353,-1.21Z" style="fill:#0a8825;"/><path d="M97.004,77.406c0,-21.934 -21.621,-39.99 -48.502,-39.99c-26.881,-0 -48.502,18.056 -48.502,39.99c0,8.588 3.341,16.949 9.556,23.85c-0.001,-0 -9.381,22.349 -9.381,22.349c-0.364,0.867 -0.15,1.87 0.537,2.513c0.687,0.643 1.701,0.791 2.543,0.371l25.293,-12.628c6.262,2.327 13.065,3.535 19.954,3.535c26.881,0 48.502,-18.056 48.502,-39.99Zm-4.5,0c0,19.725 -19.828,35.49 -44.002,35.49c-6.666,0 -13.246,-1.223 -19.251,-3.583c-0.593,-0.234 -1.258,-0.204 -1.828,0.08l-20.751,10.36c0,-0 7.596,-18.097 7.596,-18.097c0.348,-0.83 0.168,-1.788 -0.457,-2.435c-6.013,-6.217 -9.311,-13.895 -9.311,-21.815c0,-19.725 19.828,-35.49 44.002,-35.49c24.174,-0 44.002,15.765 44.002,35.49Z" style="fill:#fff;"/><path d="M25.448,70.87l1.562,0c1.242,0 2.25,-1.008 2.25,-2.25c-0,-1.242 -1.008,-2.25 -2.25,-2.25l-1.562,0c-1.242,0 -2.25,1.008 -2.25,2.25c-0,1.242 1.008,2.25 2.25,2.25Z" style="fill:#fff;"/><path d="M36.147,70.87l36.555,0c1.242,0 2.25,-1.008 2.25,-2.25c0,-1.242 -1.008,-2.25 -2.25,-2.25l-36.555,0c-1.242,0 -2.25,1.008 -2.25,2.25c-0,1.242 1.008,2.25 2.25,2.25Z" style="fill:#fff;"/><path d="M25.448,86.668l47.254,0c1.242,0 2.25,-1.008 2.25,-2.25c0,-1.242 -1.008,-2.25 -2.25,-2.25l-47.254,0c-1.242,0 -2.25,1.008 -2.25,2.25c-0,1.242 1.008,2.25 2.25,2.25Z" style="fill:#fff;"/></svg>