<?xml version="1.0" encoding="UTF-8" standalone="no"?><!DOCTYPE svg PUBLIC "-//W3C//DTD SVG 1.1//EN" "http://www.w3.org/Graphics/SVG/1.1/DTD/svg11.dtd"><svg width="100%" height="100%" viewBox="0 0 144 126" version="1.1" xmlns="http://www.w3.org/2000/svg" xmlns:xlink="http://www.w3.org/1999/xlink" xml:space="preserve" xmlns:serif="http://www.serif.com/" style="fill-rule:evenodd;clip-rule:evenodd;stroke-linejoin:round;stroke-miterlimit:2;"><path d="M55.357,60.631l-16.004,13.031c-0.524,0.428 -0.829,1.068 -0.829,1.745c0,0.677 0.305,1.318 0.829,1.745l16.004,13.031c0.962,0.784 2.381,0.639 3.165,-0.324c0.784,-0.963 0.639,-2.381 -0.324,-3.165l-13.861,-11.287c0,0 13.861,-11.286 13.861,-11.286c0.963,-0.784 1.108,-2.203 0.324,-3.166c-0.784,-0.963 -2.203,-1.108 -3.165,-0.324Z" style="fill:#0a8825;"/><path d="M85.534,64.121l13.86,11.286c0,0 -13.86,11.287 -13.86,11.287c-0.963,0.784 -1.108,2.202 -0.324,3.165c0.784,0.963 2.202,1.108 3.165,0.324l16.003,-13.031c0.525,-0.427 0.83,-1.068 0.83,-1.745c-0,-0.677 -0.305,-1.317 -0.83,-1.745l-16.003,-13.031c-0.963,-0.784 -2.381,-0.639 -3.165,0.324c-0.784,0.963 -0.639,2.382 0.324,3.166Z" style="fill:#0a8825;"/><path d="M73.32,52.322l-9.374,45.724c-0.249,1.216 0.536,2.406 1.753,2.656c1.216,0.249 2.406,-0.536 2.656,-1.753l9.373,-45.723c0.249,-1.216 -0.536,-2.407 -1.752,-2.656c-1.217,-0.249 -2.407,0.536 -2.656,1.752Z" style="fill:#0a8825;"/><path d="M143.25,14.395c-0,-7.945 -6.45,-14.395 -14.395,-14.395c-0,0 -114.46,0 -114.46,0c-7.945,0 -14.395,6.45 -14.395,14.395l0,97.162c0,7.945 6.45,14.395 14.395,14.395c0,0 114.46,0 114.46,0c7.945,0 14.395,-6.45 14.395,-14.395c-0,0 -0,-97.162 -0,-97.162Zm-4.5,22.969l-0,74.193c-0,5.461 -4.434,9.895 -9.895,9.895l-114.46,0c-5.461,0 -9.895,-4.434 -9.895,-9.895l0,-74.193l134.25,-0Zm0,-4.5l-134.25,-0l0,-18.469c0,-5.461 4.434,-9.895 9.895,-9.895l114.46,0c5.461,0 9.895,4.434 9.895,9.895l-0,18.469Z" style="fill:#fff;"/><path d="M17.455,10.745c-4.144,-0 -7.508,3.364 -7.508,7.508c0,4.144 3.364,7.508 7.508,7.508c4.144,0 7.508,-3.364 7.508,-7.508c0,-4.144 -3.364,-7.508 -7.508,-7.508Zm0,4.5c1.661,-0 3.008,1.348 3.008,3.008c0,1.66 -1.347,3.008 -3.008,3.008c-1.66,0 -3.008,-1.348 -3.008,-3.008c0,-1.66 1.348,-3.008 3.008,-3.008Z" style="fill:#fff;"/><path d="M40.774,10.745c-4.144,-0 -7.508,3.364 -7.508,7.508c-0,4.144 3.364,7.508 7.508,7.508c4.144,0 7.508,-3.364 7.508,-7.508c0,-4.144 -3.364,-7.508 -7.508,-7.508Zm0,4.5c1.66,-0 3.008,1.348 3.008,3.008c0,1.66 -1.348,3.008 -3.008,3.008c-1.66,0 -3.008,-1.348 -3.008,-3.008c-0,-1.66 1.348,-3.008 3.008,-3.008Z" style="fill:#fff;"/><path d="M64.093,10.745c-4.144,-0 -7.508,3.364 -7.508,7.508c-0,4.144 3.364,7.508 7.508,7.508c4.144,0 7.508,-3.364 7.508,-7.508c0,-4.144 -3.364,-7.508 -7.508,-7.508Zm-0,4.5c1.66,-0 3.008,1.348 3.008,3.008c0,1.66 -1.348,3.008 -3.008,3.008c-1.66,0 -3.008,-1.348 -3.008,-3.008c-0,-1.66 1.348,-3.008 3.008,-3.008Z" style="fill:#fff;"/></svg>