<?xml version="1.0" encoding="UTF-8" standalone="no"?><!DOCTYPE svg PUBLIC "-//W3C//DTD SVG 1.1//EN" "http://www.w3.org/Graphics/SVG/1.1/DTD/svg11.dtd"><svg width="100%" height="100%" viewBox="0 0 159 126" version="1.1" xmlns="http://www.w3.org/2000/svg" xmlns:xlink="http://www.w3.org/1999/xlink" xml:space="preserve" xmlns:serif="http://www.serif.com/" style="fill-rule:evenodd;clip-rule:evenodd;stroke-linejoin:round;stroke-miterlimit:2;"><path d="M65.202,19.006c-0.141,-0.976 -0.901,-1.746 -1.875,-1.9c-5.676,-0.899 -11.457,-0.899 -17.133,-0c-0.974,0.154 -1.734,0.924 -1.875,1.9l-1.378,9.535c-3.484,0.965 -6.836,2.354 -9.982,4.135c0,-0 -7.716,-5.768 -7.716,-5.768c-0.79,-0.59 -1.872,-0.598 -2.67,-0.018c-4.649,3.377 -8.737,7.466 -12.115,12.115c-0.579,0.797 -0.572,1.879 0.018,2.669l5.768,7.717c-1.781,3.146 -3.169,6.498 -4.135,9.982c0.001,-0 -9.534,1.378 -9.534,1.378c-0.976,0.141 -1.747,0.901 -1.901,1.875c-0.899,5.675 -0.899,11.457 0,17.132c0.154,0.974 0.925,1.734 1.901,1.875l9.535,1.378c0.965,3.484 2.353,6.836 4.134,9.982c0,0 -5.768,7.717 -5.768,7.717c-0.59,0.79 -0.597,1.872 -0.018,2.669c3.378,4.649 7.466,8.737 12.115,12.115c0.798,0.58 1.88,0.572 2.67,-0.018l7.716,-5.768c3.146,1.781 6.499,3.17 9.982,4.135c0,-0 1.378,9.535 1.378,9.535c0.141,0.976 0.901,1.746 1.875,1.9c5.676,0.899 11.457,0.899 17.133,0c0.974,-0.154 1.734,-0.924 1.875,-1.9l1.378,-9.535c3.483,-0.965 6.836,-2.354 9.982,-4.135c-0,0 7.716,5.768 7.716,5.768c0.79,0.59 1.872,0.598 2.67,0.018c4.649,-3.378 8.737,-7.466 12.115,-12.115c0.579,-0.797 0.572,-1.879 -0.019,-2.669l-5.767,-7.717c1.78,-3.146 3.169,-6.498 4.134,-9.982c0,0 9.535,-1.378 9.535,-1.378c0.976,-0.141 1.746,-0.901 1.901,-1.875c0.899,-5.675 0.899,-11.457 -0,-17.132c-0.155,-0.974 -0.925,-1.734 -1.901,-1.875l-9.535,-1.378c-0.965,-3.484 -2.354,-6.836 -4.134,-9.983c-0,0.001 5.767,-7.716 5.767,-7.716c0.591,-0.79 0.598,-1.872 0.019,-2.669c-3.378,-4.649 -7.466,-8.738 -12.115,-12.115c-0.798,-0.58 -1.88,-0.572 -2.67,0.018l-7.716,5.768c-3.146,-1.781 -6.499,-3.17 -9.982,-4.135c-0,0 -1.378,-9.535 -1.378,-9.535Zm-4.213,2.313l1.351,9.347c0.132,0.912 0.806,1.651 1.702,1.866c4.057,0.974 7.935,2.58 11.492,4.76c0.786,0.482 1.785,0.436 2.523,-0.116l7.564,-5.654c3.291,2.56 6.25,5.519 8.809,8.809c0,-0 -5.654,7.565 -5.654,7.565c-0.551,0.737 -0.597,1.737 -0.116,2.522c2.18,3.558 3.786,7.436 4.76,11.493c0.215,0.895 0.955,1.569 1.866,1.701l9.347,1.351c0.517,4.137 0.517,8.321 0,12.458c0,-0 -9.347,1.351 -9.347,1.351c-0.911,0.131 -1.651,0.806 -1.866,1.701c-0.974,4.057 -2.58,7.935 -4.76,11.493c-0.481,0.785 -0.435,1.784 0.116,2.522l5.654,7.565c-2.559,3.29 -5.518,6.249 -8.808,8.809c-0.001,-0 -7.565,-5.654 -7.565,-5.654c-0.738,-0.552 -1.737,-0.598 -2.523,-0.117c-3.557,2.18 -7.435,3.787 -11.492,4.761c-0.896,0.215 -1.57,0.954 -1.702,1.866l-1.351,9.347c-4.136,0.517 -8.321,0.517 -12.457,-0c-0,-0 -1.351,-9.347 -1.351,-9.347c-0.132,-0.912 -0.806,-1.651 -1.702,-1.866c-4.057,-0.974 -7.935,-2.581 -11.492,-4.761c-0.786,-0.481 -1.785,-0.435 -2.523,0.117l-7.565,5.654c-3.29,-2.56 -6.249,-5.519 -8.808,-8.809c-0.001,-0 5.654,-7.565 5.654,-7.565c0.551,-0.738 0.597,-1.737 0.116,-2.522c-2.18,-3.558 -3.786,-7.436 -4.76,-11.493c-0.215,-0.895 -0.955,-1.57 -1.866,-1.701l-9.348,-1.351c-0.516,-4.137 -0.516,-8.321 0,-12.458c0,0 9.348,-1.351 9.348,-1.351c0.911,-0.132 1.651,-0.806 1.866,-1.701c0.974,-4.057 2.58,-7.935 4.76,-11.493c0.481,-0.785 0.435,-1.785 -0.116,-2.522l-5.655,-7.565c2.56,-3.29 5.519,-6.249 8.809,-8.809c0,-0 7.565,5.654 7.565,5.654c0.738,0.552 1.737,0.598 2.523,0.116c3.557,-2.18 7.435,-3.786 11.492,-4.76c0.896,-0.215 1.57,-0.954 1.702,-1.866l1.351,-9.347c4.136,-0.517 8.321,-0.517 12.457,-0l0,0Zm-6.229,31.87c-9.936,-0 -18.003,8.067 -18.003,18.003c0,9.936 8.067,18.003 18.003,18.003c9.937,0 18.004,-8.067 18.004,-18.003c-0,-9.936 -8.067,-18.003 -18.004,-18.003Zm0,4.5c7.453,-0 13.504,6.05 13.504,13.503c-0,7.453 -6.051,13.503 -13.504,13.503c-7.452,0 -13.503,-6.05 -13.503,-13.503c0,-7.453 6.051,-13.503 13.503,-13.503Z" style="fill:#fff;"/><path d="M100.79,14.612c-0.954,-0.246 -1.958,0.157 -2.477,0.995c-2.368,3.827 -3.928,8.098 -4.582,12.551c-0.143,0.975 0.365,1.93 1.254,2.356l5.15,2.47c0.004,3.012 0.528,6.002 1.549,8.836c0,0 -4.002,4.075 -4.002,4.075c-0.691,0.703 -0.844,1.773 -0.377,2.641c2.129,3.965 5.049,7.451 8.578,10.244c0.773,0.612 1.854,0.649 2.667,0.093l4.714,-3.225c2.611,1.502 5.463,2.543 8.428,3.076c-0.001,-0 1.527,5.504 1.527,5.504c0.263,0.949 1.114,1.617 2.099,1.647c4.499,0.138 8.978,-0.648 13.161,-2.308c0.916,-0.363 1.489,-1.28 1.414,-2.263l-0.437,-5.695c2.607,-1.51 4.934,-3.459 6.878,-5.76c0,0 5.53,1.429 5.53,1.429c0.954,0.247 1.958,-0.156 2.477,-0.994c2.368,-3.827 3.928,-8.099 4.582,-12.552c0.143,-0.975 -0.365,-1.929 -1.254,-2.355l-5.15,-2.47c-0.004,-3.013 -0.528,-6.002 -1.549,-8.837c-0,0 4.002,-4.074 4.002,-4.074c0.691,-0.703 0.844,-1.774 0.377,-2.642c-2.129,-3.965 -5.049,-7.451 -8.579,-10.244c-0.772,-0.611 -1.853,-0.649 -2.666,-0.092l-4.714,3.225c-2.611,-1.503 -5.463,-2.543 -8.428,-3.077c0,0 -1.527,-5.503 -1.527,-5.503c-0.263,-0.95 -1.114,-1.617 -2.099,-1.648c-4.499,-0.137 -8.978,0.648 -13.161,2.308c-0.916,0.364 -1.489,1.281 -1.414,2.263l0.437,5.695c-2.607,1.51 -4.934,3.459 -6.879,5.761c0.001,-0.001 -5.529,-1.43 -5.529,-1.43Zm0.526,4.784l5.29,1.367c0.883,0.228 1.817,-0.099 2.364,-0.829c2.007,-2.677 4.607,-4.854 7.595,-6.36c0.814,-0.411 1.301,-1.272 1.231,-2.181l-0.417,-5.449c2.64,-0.875 5.395,-1.358 8.176,-1.434c0,0 1.462,5.266 1.462,5.266c0.243,0.879 0.994,1.523 1.899,1.632c3.323,0.399 6.508,1.562 9.306,3.397c0.763,0.5 1.752,0.491 2.505,-0.024l4.509,-3.086c2.079,1.85 3.874,3.994 5.33,6.364c0,0.001 -3.829,3.899 -3.829,3.899c-0.639,0.65 -0.822,1.622 -0.464,2.461c1.316,3.077 1.901,6.417 1.711,9.758c-0.052,0.91 0.451,1.762 1.274,2.156l4.927,2.363c-0.563,2.725 -1.522,5.352 -2.847,7.798c0,0 -5.291,-1.367 -5.291,-1.367c-0.882,-0.228 -1.816,0.099 -2.363,0.829c-2.007,2.678 -4.607,4.855 -7.595,6.361c-0.814,0.41 -1.301,1.272 -1.231,2.181l0.417,5.448c-2.64,0.875 -5.395,1.358 -8.176,1.434c-0,-0 -1.462,-5.265 -1.462,-5.265c-0.243,-0.879 -0.994,-1.524 -1.899,-1.633c-3.323,-0.399 -6.508,-1.562 -9.306,-3.397c-0.763,-0.5 -1.752,-0.49 -2.505,0.025l-4.509,3.085c-2.079,-1.849 -3.874,-3.993 -5.33,-6.364c-0,-0 3.829,-3.898 3.829,-3.898c0.639,-0.651 0.822,-1.623 0.464,-2.461c-1.316,-3.078 -1.901,-6.417 -1.711,-9.758c0.052,-0.911 -0.451,-1.763 -1.274,-2.157l-4.927,-2.363c0.563,-2.724 1.522,-5.352 2.847,-7.798l-0,0Zm17.131,10.672c-1.588,4.35 0.654,9.17 5.003,10.758c4.349,1.587 9.17,-0.655 10.757,-5.004c1.588,-4.349 -0.654,-9.169 -5.003,-10.757c-4.35,-1.588 -9.17,0.654 -10.757,5.003Zm4.227,1.544c0.736,-2.017 2.97,-3.056 4.987,-2.32c2.016,0.736 3.055,2.971 2.319,4.987c-0.736,2.016 -2.97,3.055 -4.987,2.319c-2.016,-0.736 -3.055,-2.97 -2.319,-4.986Z" style="fill:#0a8825;"/></svg>