<?xml version="1.0" encoding="UTF-8" standalone="no"?><!DOCTYPE svg PUBLIC "-//W3C//DTD SVG 1.1//EN" "http://www.w3.org/Graphics/SVG/1.1/DTD/svg11.dtd"><svg width="100%" height="100%" viewBox="0 0 543 528" version="1.1" xmlns="http://www.w3.org/2000/svg" xmlns:xlink="http://www.w3.org/1999/xlink" xml:space="preserve" xmlns:serif="http://www.serif.com/" style="fill-rule:evenodd;clip-rule:evenodd;stroke-linejoin:round;stroke-miterlimit:2;"><path d="M273.887,0.028c-1.296,-0.019 -2.591,-0.028 -3.887,-0.028c-148.118,0 -270,121.882 -270,270c0,117.55 76.767,222.214 188.887,257.528c12.5,2.5 22.5,-11.25 22.5,-22.5l-0,-36.25c-75,16.25 -98.75,-36.25 -98.75,-36.25c-4.876,-15.822 -14.473,-29.782 -27.5,-40c-25,-17.5 1.25,-16.25 1.25,-16.25c16.914,1.349 32.228,10.63 41.25,25c21.25,36.25 68.75,32.5 83.75,26.25c-1.313,-12.428 0.851,-24.979 6.25,-36.25c-85,-15 -131.25,-65 -131.25,-132.5c-0.894,-35.191 12.14,-69.35 36.25,-95c-13.673,-25.26 -12.226,-56.13 3.75,-80c30.496,0.6 59.442,13.716 80,36.25c21.705,-7.406 44.58,-10.795 67.5,-10c22.823,-0.707 45.612,2.247 67.5,8.75c20.858,-21.953 49.721,-34.581 80,-35c15.601,23.904 17.504,54.34 5,80c23.655,25.848 36.232,59.983 35,95c-0,67.5 -46.25,117.5 -131.25,132.5c5.398,11.271 7.563,23.822 6.25,36.25l-0,77.5c-0,0.012 -0,0.023 -0,0.035c-0,12.343 10.157,22.5 22.5,22.5c0.417,-0 0.834,-0.012 1.25,-0.035c108.883,-37.779 182.335,-141.013 182.335,-256.263c0,-147.797 -120.795,-269.785 -268.585,-271.237Z" style="fill:#fff;fill-rule:nonzero;"/></svg>