<?xml version="1.0" encoding="UTF-8" standalone="no"?><!DOCTYPE svg PUBLIC "-//W3C//DTD SVG 1.1//EN" "http://www.w3.org/Graphics/SVG/1.1/DTD/svg11.dtd"><svg width="100%" height="100%" viewBox="0 0 144 126" version="1.1" xmlns="http://www.w3.org/2000/svg" xmlns:xlink="http://www.w3.org/1999/xlink" xml:space="preserve" xmlns:serif="http://www.serif.com/" style="fill-rule:evenodd;clip-rule:evenodd;stroke-linejoin:round;stroke-miterlimit:2;"><path d="M143.25,12.573c0,-6.939 -5.634,-12.573 -12.573,-12.573l-118.104,0c-6.939,0 -12.573,5.634 -12.573,12.573l-0,82.588c-0,6.94 5.634,12.574 12.573,12.574l76.021,-0c0,-0 -5.222,15.238 -5.222,15.238c-0.314,0.914 -0.008,1.927 0.759,2.515c0.767,0.588 1.824,0.621 2.626,0.081l26.486,-17.834c0,-0 17.434,-0 17.434,-0c6.939,-0 12.573,-5.634 12.573,-12.574c0,0 0,-82.588 0,-82.588Zm-4.5,0l-0,82.588c-0,4.456 -3.618,8.074 -8.073,8.074c-0,-0 -18.121,-0 -18.121,-0c-0.447,-0 -0.885,0.133 -1.256,0.383l-21.499,14.476c-0,0 4.071,-11.88 4.071,-11.88c0.236,-0.687 0.125,-1.446 -0.297,-2.037c-0.423,-0.592 -1.105,-0.942 -1.831,-0.942l-79.171,-0c-4.455,-0 -8.073,-3.618 -8.073,-8.074c-0,0 -0,-82.588 -0,-82.588c-0,-4.455 3.618,-8.073 8.073,-8.073l118.104,0c4.455,0 8.073,3.618 8.073,8.073Z" style="fill:#fff;"/><g transform="matrix(0.75,0,0,0.75,-851.862,-1157.08)"><text x="1159.07px" y="1585.48px" style="font-family:'DejaVuSansMono', 'DejaVu Sans Mono', monospace;font-size:24px;fill:#0a8825;">1001110110</text><text x="1159.07px" y="1609.48px" style="font-family:'DejaVuSansMono', 'DejaVu Sans Mono', monospace;font-size:24px;fill:#0a8825;">0101101000</text><text x="1159.07px" y="1633.48px" style="font-family:'DejaVuSansMono', 'DejaVu Sans Mono', monospace;font-size:24px;fill:#0a8825;">1111010010</text><text x="1159.07px" y="1657.48px" style="font-family:'DejaVuSansMono', 'DejaVu Sans Mono', monospace;font-size:24px;fill:#0a8825;">1010000100</text></g></svg>