<?xml version="1.0" encoding="UTF-8" standalone="no"?><!DOCTYPE svg PUBLIC "-//W3C//DTD SVG 1.1//EN" "http://www.w3.org/Graphics/SVG/1.1/DTD/svg11.dtd"><svg width="100%" height="100%" viewBox="0 0 543 528" version="1.1" xmlns="http://www.w3.org/2000/svg" xmlns:xlink="http://www.w3.org/1999/xlink" xml:space="preserve" xmlns:serif="http://www.serif.com/" style="fill-rule:evenodd;clip-rule:evenodd;stroke-linejoin:round;stroke-miterlimit:2;"><path d="M542.472,52.783c0,-29.132 -23.651,-52.783 -52.782,-52.783l-436.907,0c-29.132,0 -52.783,23.651 -52.783,52.783l-0,422.26c-0,29.132 23.651,52.783 52.783,52.783l436.907,-0c29.131,-0 52.782,-23.651 52.782,-52.783l0,-422.26Zm-383.703,140.9l-0,270.81l-88.579,-0l0,-270.81l88.579,-0Zm137.162,38.483c-0.18,0.287 -0.359,0.576 -0.537,0.867l0.537,0l-0,-0.867c3.408,-5.47 6.898,-10.282 10.468,-14.436c3.758,-4.372 8.813,-9.109 15.166,-14.21c6.352,-5.101 14.136,-9.063 23.352,-11.887c9.216,-2.824 19.461,-4.236 30.734,-4.236c30.6,0 55.205,10.339 73.815,31.016c18.611,20.678 27.916,50.965 27.916,90.863l-0,155.217l-88.31,-0l0,-144.833c0,-19.129 -3.624,-34.113 -10.871,-44.953c-7.247,-10.84 -18.566,-16.26 -33.955,-16.26c-11.273,0 -20.713,3.143 -28.318,9.428c-7.605,6.285 -13.287,14.074 -17.045,23.365c-1.968,5.465 -2.952,12.843 -2.952,22.135l-0,151.118l-88.31,-0c0.358,-72.69 0.537,-131.625 0.537,-176.806c-0,-45.18 -0.09,-72.143 -0.269,-80.888l-0.268,-13.116l88.31,-0l-0,38.483Zm-131.526,-122.104c0.179,13.299 -4.339,24.412 -13.555,33.339c-9.215,8.927 -21.339,13.39 -36.371,13.39l-0.536,0c-14.674,0 -26.484,-4.463 -35.432,-13.39c-8.947,-8.927 -13.421,-20.04 -13.421,-33.339c0,-13.481 4.608,-24.64 13.824,-33.475c9.216,-8.836 21.25,-13.254 36.102,-13.254c14.853,-0 26.753,4.418 35.7,13.254c8.947,8.835 13.51,19.994 13.689,33.475Z" style="fill:#fff;"/></svg>