<?xml version="1.0" encoding="UTF-8" standalone="no"?><!DOCTYPE svg PUBLIC "-//W3C//DTD SVG 1.1//EN" "http://www.w3.org/Graphics/SVG/1.1/DTD/svg11.dtd"><svg width="100%" height="100%" viewBox="0 0 111 111" version="1.1" xmlns="http://www.w3.org/2000/svg" xmlns:xlink="http://www.w3.org/1999/xlink" xml:space="preserve" xmlns:serif="http://www.serif.com/" style="fill-rule:evenodd;clip-rule:evenodd;stroke-linejoin:round;stroke-miterlimit:2;"><path d="M51.312,75.177c0.586,-0.586 0.586,-1.535 0,-2.121l-13.599,-13.599c-0.586,-0.586 -1.535,-0.586 -2.121,-0l-5.526,5.526c-7.962,-2.369 -16.94,-0.411 -23.222,5.871c-6.52,6.519 -8.382,15.944 -5.583,24.122c0.167,0.49 0.576,0.858 1.08,0.975c0.504,0.117 1.033,-0.034 1.399,-0.4l12.84,-12.84c-0,0 11.478,11.478 11.478,11.478c-0,0 -12.84,12.84 -12.84,12.84c-0.366,0.366 -0.517,0.895 -0.4,1.399c0.117,0.504 0.485,0.913 0.975,1.081c8.178,2.798 17.603,0.936 24.122,-5.584c6.282,-6.282 8.24,-15.26 5.871,-23.222c0,0 5.526,-5.526 5.526,-5.526Zm-3.182,-1.06l-5.111,5.111c-0.405,0.405 -0.544,1.005 -0.359,1.546c2.44,7.13 0.817,15.346 -4.866,21.03c-5.057,5.056 -12.117,6.898 -18.634,5.526c0,-0 12.08,-12.08 12.08,-12.08c0.586,-0.586 0.586,-1.536 -0,-2.122l-13.599,-13.599c-0.586,-0.586 -1.536,-0.586 -2.122,0l-12.079,12.08c-1.373,-6.516 0.469,-13.577 5.525,-18.634c5.684,-5.683 13.9,-7.306 21.03,-4.866c0.541,0.185 1.141,0.046 1.546,-0.359l5.112,-5.111l11.477,11.478Zm11.327,-38.525c-0.586,0.586 -0.586,1.535 -0,2.121l13.599,13.599c0.586,0.586 1.535,0.586 2.121,0l5.526,-5.526c7.962,2.369 16.94,0.411 23.222,-5.871c6.52,-6.519 8.382,-15.944 5.584,-24.122c-0.168,-0.49 -0.577,-0.858 -1.081,-0.975c-0.504,-0.117 -1.033,0.034 -1.399,0.4l-12.84,12.84c0,-0 -11.478,-11.478 -11.478,-11.478c0,-0 12.84,-12.84 12.84,-12.84c0.366,-0.366 0.517,-0.895 0.4,-1.399c-0.117,-0.504 -0.485,-0.913 -0.975,-1.08c-8.178,-2.799 -17.603,-0.937 -24.122,5.583c-6.282,6.282 -8.24,15.26 -5.871,23.222c-0,-0 -5.526,5.526 -5.526,5.526Zm3.182,1.061l5.111,-5.112c0.405,-0.405 0.544,-1.005 0.359,-1.546c-2.44,-7.13 -0.817,-15.346 4.866,-21.03c5.057,-5.056 12.117,-6.898 18.634,-5.525c0,-0 -12.08,12.079 -12.08,12.079c-0.586,0.586 -0.586,1.536 0,2.122l13.599,13.599c0.586,0.586 1.536,0.586 2.122,-0l12.08,-12.08c1.372,6.516 -0.47,13.577 -5.526,18.634c-5.684,5.683 -13.9,7.306 -21.03,4.866c-0.541,-0.185 -1.141,-0.046 -1.546,0.359l-5.111,5.111l-11.478,-11.477Z" style="fill:#fff;"/><path d="M4.271,12.567c-0.985,0.984 -1.538,2.32 -1.538,3.712c0,1.392 0.553,2.728 1.538,3.712c13.639,13.639 75.258,75.259 75.258,75.259c0.162,0.161 0.358,0.284 0.574,0.358l20.7,7.101c0.542,0.185 1.142,0.046 1.547,-0.359c0.405,-0.405 0.544,-1.005 0.359,-1.547l-7.101,-20.7c-0.074,-0.216 -0.197,-0.412 -0.358,-0.574c-0,0 -61.62,-61.619 -75.259,-75.258c-0.984,-0.985 -2.32,-1.538 -3.712,-1.538c-1.392,0 -2.728,0.553 -3.712,1.538l-8.296,8.296Zm2.121,2.121l8.296,-8.296c0.422,-0.422 0.994,-0.659 1.591,-0.659c0.597,0 1.169,0.237 1.591,0.659l75.013,75.013c-0,0 5.993,17.471 5.993,17.471c-0,-0 -17.471,-5.993 -17.471,-5.993c0,-0 -75.013,-75.013 -75.013,-75.013c-0.422,-0.422 -0.659,-0.994 -0.659,-1.591c0,-0.597 0.237,-1.169 0.659,-1.591Z" style="fill:#0a8825;"/><path d="M12.918,26.518l13.6,-13.6c0.585,-0.585 0.585,-1.535 -0,-2.121c-0.586,-0.585 -1.536,-0.585 -2.122,0l-13.599,13.599c-0.585,0.586 -0.585,1.536 0,2.122c0.586,0.585 1.536,0.585 2.121,-0Z" style="fill:#0a8825;"/><path d="M81.651,95.25l13.337,-13.337c0.585,-0.586 0.585,-1.536 -0,-2.122c-0.586,-0.585 -1.536,-0.585 -2.122,0l-13.337,13.337c-0.585,0.586 -0.585,1.536 0,2.122c0.586,0.585 1.536,0.585 2.122,-0Z" style="fill:#0a8825;"/><path d="M92.785,99.069l6.156,-6.156c0.586,-0.585 0.586,-1.536 0,-2.121c-0.585,-0.586 -1.536,-0.586 -2.121,-0l-6.156,6.156c-0.586,0.585 -0.586,1.536 -0,2.121c0.585,0.586 1.536,0.586 2.121,0Z" style="fill:#0a8825;"/><path d="M22.602,24.851l58.594,58.594c0.585,0.586 1.536,0.586 2.121,0c0.586,-0.585 0.586,-1.536 0,-2.121l-58.594,-58.595c-0.586,-0.585 -1.536,-0.585 -2.121,0c-0.586,0.586 -0.586,1.536 -0,2.122Z" style="fill:#0a8825;"/></svg>